<?xml version="1.0" encoding="UTF-8"?>
<svg id="Layer_2" data-name="Layer 2" xmlns="http://www.w3.org/2000/svg" viewBox="0 0 728 208">
  <defs>
    <style>
      .cls-1 {
        fill: #fff;
        stroke-width: 0px;
      }
    </style>
  </defs>
  <g id="Layer_2-2" data-name="Layer 2">
    <g>
      <path class="cls-1" d="m156.69,110.97h-32.62v3.03h32.62v-3.03Zm-6.57-25.7h-19.48v3.03h19.48v-3.03Zm31.86,12.29h-3.75v-26.09c0-.84-.68-1.51-1.51-1.51h-6.71v-2.04c0-.84-.68-1.51-1.51-1.51h-56.21c-.84,0-1.51.68-1.51,1.51v79.72c0,.84.68,1.51,1.51,1.51h56.21c.84,0,1.51-.68,1.51-1.51v-2.04h6.71c.84,0,1.51-.68,1.51-1.51v-27.96h3.75c.84,0,1.51-.68,1.51-1.51v-15.53c0-.84-.68-1.51-1.51-1.51Zm-15.01,46.52v2.04h-53.18v-24.16c.93.59,2.01.94,3.17.99v14.68c0,2.67,2.17,4.84,4.84,4.84h37.15c2.67,0,4.84-2.17,4.84-4.84v-14.68c1.16-.05,2.25-.4,3.17-.99v22.12Zm-46.98-6.45v-14.67h40.78v14.67c0,1-.81,1.81-1.81,1.81h-37.15c-1,0-1.81-.81-1.81-1.81Zm46.98-21.14c0,1.9-1.54,3.44-3.44,3.44h-46.29c-1.9,0-3.44-1.55-3.44-3.44v-13.25h53.18v13.25Zm-45.15-20.87h37.12l5.42,4.59h-47.95l5.42-4.59Zm-1.83-4.73v-14.78h40.78v14.78c0,.94-.76,1.7-1.7,1.7h-37.37c-.94,0-1.7-.76-1.7-1.7Zm46.98-19.41v26.98l-4.77-4.05c.98-.87,1.6-2.12,1.6-3.52v-16.29c0-.84-.68-1.51-1.51-1.51h-43.81c-.84,0-1.51.68-1.51,1.51v16.29c0,1.4.63,2.65,1.6,3.52l-4.77,4.05v-29.02h53.18v2.04Zm8.23,27.6v43.49h-5.2v-69.58h5.2v26.09Zm5.27,14.02h-2.24v-12.5h2.24v12.5Z"/>
      <path class="cls-1" d="m284.6,21.84h-3.11s-.01,0-.02,0c-.02,0-.03,0-.05,0-.03,0-.06,0-.09,0-.01,0-.03,0-.04,0-.03,0-.07.01-.1.02-.01,0-.02,0-.03,0-.04.01-.09.03-.13.05h0s-13.21,5.63-13.21,5.63h-56.06v68.53h56.06l13.21,5.63h0s.04.01.05.02c.04.01.08.03.12.04.06.01.12.03.18.03.04,0,.08,0,.12,0h3.11c3.92,0,7.11-3.19,7.11-7.11V28.95c0-3.92-3.19-7.11-7.11-7.11Zm-17.73,13.89v58.01h-52.75V29.94h52.75v5.78Zm2.37.92l6.91-1.8v1.63l-6.91,1.8v-1.63Zm0,24.4h6.72v1.58h-6.72v-1.58Zm0,24.35l6.91,1.8v1.63l-6.91-1.8v-1.63Zm11.06,13.45l-11.06-4.72v-4.65l7.8,2.03c.1.03.2.04.3.04.26,0,.52-.09.72-.25.29-.22.46-.57.46-.94v-4.08c0-.54-.36-1.01-.89-1.15l-8.4-2.19v-17.95h9.09v-6.32h-9.09v-17.95l8.4-2.19c.52-.14.89-.61.89-1.15v-4.08c0-.37-.17-.71-.46-.94-.29-.22-.67-.3-1.02-.21l-7.8,2.03v-4.65l11.06-4.72v74.03Zm9.04-4.13c0,2.61-2.13,4.74-4.74,4.74h-1.92V24.21h1.92c2.61,0,4.74,2.13,4.74,4.74v65.77Zm-63.89-47.96c-1.82,0-3.3,1.48-3.3,3.3s1.48,3.3,3.3,3.3,3.3-1.48,3.3-3.3-1.48-3.3-3.3-3.3Zm0,4.24c-.51,0-.93-.42-.93-.93s.42-.93.93-.93.93.42.93.93-.42.93-.93.93Zm15.04-4.24c-1.82,0-3.3,1.48-3.3,3.3s1.48,3.3,3.3,3.3,3.3-1.48,3.3-3.3-1.48-3.3-3.3-3.3Zm0,4.24c-.51,0-.93-.42-.93-.93s.42-.93.93-.93.93.42.93.93-.42.93-.93.93Zm15.04-4.24c-1.82,0-3.3,1.48-3.3,3.3s1.48,3.3,3.3,3.3,3.3-1.48,3.3-3.3-1.48-3.3-3.3-3.3Zm0,4.24c-.51,0-.93-.42-.93-.93s.42-.93.93-.93.93.42.93.93-.42.93-.93.93Zm-30.08,19.27c-1.82,0-3.3,1.48-3.3,3.3s1.48,3.3,3.3,3.3,3.3-1.48,3.3-3.3-1.48-3.3-3.3-3.3Zm0,4.24c-.51,0-.93-.42-.93-.93s.42-.93.93-.93.93.42.93.93-.42.93-.93.93Zm15.04-4.24c-1.82,0-3.3,1.48-3.3,3.3s1.48,3.3,3.3,3.3,3.3-1.48,3.3-3.3-1.48-3.3-3.3-3.3Zm0,4.24c-.51,0-.93-.42-.93-.93s.42-.93.93-.93.93.42.93.93-.42.93-.93.93Zm15.04-4.24c-1.82,0-3.3,1.48-3.3,3.3s1.48,3.3,3.3,3.3,3.3-1.48,3.3-3.3-1.48-3.3-3.3-3.3Zm0,4.24c-.51,0-.93-.42-.93-.93s.42-.93.93-.93.93.42.93.93-.42.93-.93.93Zm-31.74,16.66h33.39c3.92,0,7.11-3.19,7.11-7.11v-44.43c0-3.92-3.19-7.11-7.11-7.11h-33.39c-3.92,0-7.11,3.19-7.11,7.11v44.43c0,3.92,3.19,7.11,7.11,7.11Zm-4.74-51.54c0-2.61,2.13-4.74,4.74-4.74h33.39c2.61,0,4.74,2.13,4.74,4.74v6.33c-1.35-2.1-3.71-3.5-6.39-3.5-3.81,0-6.97,2.81-7.52,6.47-.55-3.66-3.71-6.47-7.52-6.47s-6.97,2.81-7.52,6.47c-.55-3.66-3.71-6.47-7.52-6.47-2.68,0-5.04,1.4-6.39,3.5v-6.33Zm41.71,10.44c0,2.89-2.35,5.24-5.24,5.24s-5.24-2.35-5.24-5.24c0-.13,0-.27.02-.4.21-2.7,2.47-4.83,5.22-4.83,2.53,0,4.64,1.8,5.13,4.18.07.34.11.69.11,1.05Zm-15.04,0c0,2.89-2.35,5.24-5.24,5.24s-5.24-2.35-5.24-5.24c0-.13,0-.27.02-.4.21-2.7,2.47-4.83,5.22-4.83s5.01,2.13,5.22,4.83c.01.13.02.27.02.4Zm-15.04,0c0,2.89-2.35,5.24-5.24,5.24s-5.24-2.35-5.24-5.24c0-.36.04-.71.11-1.05.49-2.38,2.6-4.18,5.13-4.18,2.75,0,5.01,2.13,5.22,4.83.01.13.02.27.02.4Zm-11.63,4.11c1.35,2.1,3.71,3.5,6.39,3.5,3.53,0,6.51-2.42,7.36-5.69h.32c.85,3.27,3.83,5.69,7.36,5.69s6.51-2.42,7.36-5.69h.32c.85,3.27,3.83,5.69,7.36,5.69,2.68,0,5.04-1.4,6.39-3.5v1.32c-1.54,1.82-3.83,2.98-6.39,2.98s-4.99-1.17-6.59-3.21c-.22-.29-.57-.45-.93-.45s-.71.17-.93.45c-1.6,2.04-4,3.21-6.59,3.21s-4.99-1.17-6.59-3.21c-.22-.29-.57-.45-.93-.45s-.71.17-.93.45c-1.6,2.04-4,3.21-6.59,3.21s-4.86-1.16-6.39-2.98v-1.32Zm0,4.55c1.79,1.33,4,2.12,6.39,2.12,2.85,0,5.52-1.11,7.52-3.07,2,1.97,4.67,3.07,7.52,3.07s5.52-1.11,7.52-3.07c2,1.97,4.67,3.07,7.52,3.07,2.39,0,4.61-.79,6.39-2.12v10.74c-1.35-2.1-3.71-3.5-6.39-3.5-3.81,0-6.97,2.81-7.52,6.47-.55-3.66-3.71-6.47-7.52-6.47s-6.97,2.81-7.52,6.47c-.55-3.66-3.71-6.47-7.52-6.47-2.68,0-5.04,1.4-6.39,3.5v-10.74Zm41.71,14.85c0,2.89-2.35,5.24-5.24,5.24s-5.24-2.35-5.24-5.24c0-.13,0-.27.02-.4.21-2.7,2.47-4.83,5.22-4.83,2.53,0,4.64,1.8,5.13,4.18.07.34.11.69.11,1.05Zm-15.04,0c0,2.89-2.35,5.24-5.24,5.24s-5.24-2.35-5.24-5.24c0-.13,0-.27.02-.4.21-2.7,2.47-4.83,5.22-4.83s5.01,2.13,5.22,4.83c.01.13.02.27.02.4Zm-15.04,0c0,2.89-2.35,5.24-5.24,5.24s-5.24-2.35-5.24-5.24c0-.36.04-.71.11-1.05.49-2.38,2.6-4.18,5.13-4.18,2.75,0,5.01,2.13,5.22,4.83.01.13.02.27.02.4Zm-11.63,4.11c1.35,2.1,3.71,3.5,6.39,3.5,3.53,0,6.51-2.42,7.36-5.69h.32c.85,3.27,3.83,5.69,7.36,5.69s6.51-2.42,7.36-5.69h.32c.85,3.27,3.83,5.69,7.36,5.69,2.68,0,5.04-1.4,6.39-3.5v1.32c-1.54,1.82-3.83,2.98-6.39,2.98s-4.99-1.17-6.59-3.21c-.22-.29-.57-.45-.93-.45s-.71.17-.93.45c-1.6,2.04-4,3.21-6.59,3.21s-4.99-1.17-6.59-3.21c-.22-.29-.57-.45-.93-.45s-.71.17-.93.45c-1.6,2.04-4,3.21-6.59,3.21s-4.86-1.16-6.39-2.98v-1.32Zm0,4.55c1.79,1.33,4,2.12,6.39,2.12,2.85,0,5.52-1.11,7.52-3.07,2,1.97,4.67,3.07,7.52,3.07s5.52-1.11,7.52-3.07c2,1.97,4.67,3.07,7.52,3.07,2.39,0,4.61-.79,6.39-2.12v1.82c0,2.61-2.13,4.74-4.74,4.74h-33.39c-2.61,0-4.74-2.13-4.74-4.74v-1.82Z"/>
      <path class="cls-1" d="m604.92,69.51l1.49-2.64-5.54-3.12,6.84-1.78-.76-2.93-9.88,2.57-6.83-3.85,6.82-3.85,9.88,2.57.76-2.93-6.84-1.78,5.77-3.26-1.49-2.64-5.74,3.24,2.02-6.61-2.9-.88-2.94,9.65-6.79,3.83v-7.55l7.09-7.34-2.18-2.1-4.91,5.09v-6.63h-3.03v6.59l-4.77-5-2.19,2.09,6.96,7.31v7.69l-7.03-3.96-2.94-9.65-2.9.88,2.01,6.61-5.74-3.24-1.49,2.64,5.77,3.26-6.84,1.78.76,2.93,9.88-2.57,6.82,3.85-6.83,3.85-9.88-2.57-.76,2.93,6.84,1.78-5.54,3.12,1.49,2.64,5.51-3.11-2.02,6.61,2.9.88,2.94-9.65,7.02-3.96v8.31l-7.09,7.34,2.18,2.1,4.91-5.09v6.36h3.03v-6.33l4.77,5,2.19-2.09-6.96-7.31v-8.18l6.79,3.83,2.94,9.65,2.9-.88-2.02-6.61,5.51,3.11Zm-46.85,12.68l-2.32,1.94c1.39,1.66,2.93,3.23,4.57,4.65l1.99-2.29c-1.52-1.32-2.94-2.77-4.23-4.31Zm57.9-48.87l2.3-1.97c-1.41-1.64-2.96-3.18-4.62-4.59l-1.96,2.31c1.53,1.3,2.97,2.72,4.27,4.24Zm7.84,50.01l-3.03-2.11c6.81-9.83,8.99-21.97,5.98-33.56-1.24-4.79-3.3-9.25-6.1-13.24l-2.48,1.74c2.6,3.7,4.5,7.83,5.65,12.26,2.91,11.2.58,22.95-6.39,32.25-.25.33-.35.74-.28,1.15s.29.77.63,1l2.33,1.62-14.33,8.17,2.8-16.18,2.6,1.81c.67.46,1.58.32,2.07-.32,6.2-8.11,8.29-18.4,5.73-28.23-2.21-8.5-7.59-15.63-15.16-20.08-6.96-4.09-15-5.46-22.86-3.94l.81-5.2c6.06-.88,12.26-.28,18.01,1.77,2.27.81,4.48,1.84,6.57,3.07.76.45,1.52.93,2.24,1.43l1.71-2.5c-.78-.54-1.6-1.05-2.42-1.54-2.26-1.33-4.64-2.44-7.09-3.31-6.57-2.34-13.7-2.93-20.61-1.73-.64.11-1.14.62-1.24,1.26l-1.33,8.5c-.08.5.1,1.01.48,1.36.38.34.9.47,1.4.34l.16-.05c7.72-2,15.75-.88,22.63,3.16,6.87,4.04,11.76,10.51,13.77,18.23,2.2,8.45.6,17.29-4.36,24.46l-3.33-2.32c-.43-.3-.97-.35-1.45-.15-.48.2-.82.63-.91,1.14l-3.76,21.69c-.1.58.14,1.16.62,1.5.26.18.56.28.87.28.26,0,.52-.07.75-.2l19.21-10.95c.45-.26.74-.73.76-1.25.02-.52-.22-1.01-.65-1.31Zm-29.83,3.66c-5.61,1.32-11.41,1.01-16.75-.89-1.79-.64-3.53-1.45-5.18-2.42-6.87-4.04-11.76-10.51-13.77-18.23-2-7.72-.88-15.75,3.16-22.63.05-.09.1-.17.15-.25l2.84,1.91c.43.29.98.34,1.45.13.47-.21.81-.64.89-1.15l3.35-21.14c.09-.57-.15-1.15-.63-1.48-.48-.33-1.1-.36-1.61-.08l-18.95,10.62c-.46.26-.75.73-.77,1.26-.02.53.23,1.02.67,1.32l3.59,2.42c-.18.28-.34.56-.51.84-5.54,9.42-7.07,20.43-4.32,31.01,1.19,4.56,3.12,8.84,5.76,12.71l2.5-1.71c-2.44-3.58-4.23-7.54-5.33-11.76-2.54-9.79-1.12-19.99,4-28.71.37-.63.78-1.27,1.23-1.95.47-.69.28-1.63-.41-2.1l-2.78-1.87,14.08-7.89-2.49,15.7-2.14-1.44c-.69-.47-1.63-.28-2.1.41-.37.55-.74,1.1-1.08,1.68-4.45,7.57-5.68,16.42-3.47,24.92,2.21,8.5,7.59,15.63,15.16,20.08,1.82,1.07,3.73,1.96,5.7,2.66,5.19,1.85,10.76,2.33,16.24,1.43l-.91,5.17c-6.07.71-12.27-.08-18-2.29-1.41-.54-2.8-1.18-4.13-1.89h0c-1.27-.67-2.52-1.43-3.71-2.25l-1.71,2.5c1.28.88,2.63,1.7,4,2.42l.71-1.34-.71,1.34c1.44.76,2.94,1.45,4.46,2.04,4.71,1.82,9.72,2.75,14.74,2.75,1.96,0,3.93-.14,5.88-.43.65-.09,1.16-.59,1.27-1.24l1.48-8.44c.09-.5-.08-1.01-.45-1.36-.37-.35-.89-.49-1.39-.37Z"/>
      <path class="cls-1" d="m443.7,22.62l-4.45,4.74c-.45.48-.42,1.23.05,1.68.23.21.52.32.81.32.32,0,.63-.13.86-.37l4.45-4.74c.45-.48.42-1.23-.05-1.68-.48-.45-1.23-.42-1.68.05Zm56.49,4.74l-4.45-4.74c-.45-.48-1.2-.5-1.68-.05-.48.45-.5,1.2-.05,1.68l4.45,4.74c.23.25.55.37.86.37.29,0,.58-.11.81-.32.48-.45.5-1.2.05-1.68Zm9.44,4.74s0-.03,0-.04c0-.04,0-.08-.01-.12,0-.01,0-.02,0-.03,0-.05-.02-.1-.04-.15,0,0,0,0,0-.01-.02-.05-.03-.09-.05-.13,0,0,0-.02-.01-.03-.02-.05-.05-.09-.08-.13,0,0,0,0-.01-.01-.03-.04-.06-.07-.09-.11,0,0,0-.01-.01-.02l-11.85-12.64c-.22-.24-.54-.37-.86-.37h-53.74c-.33,0-.64.14-.86.37l-11.85,12.64s0,.01-.01.02c-.03.04-.06.07-.09.11,0,0,0,0-.01.01-.03.04-.06.09-.08.13,0,0,0,.02-.01.03-.02.04-.04.09-.05.13,0,0,0,0,0,.01-.02.05-.03.1-.04.15,0,.01,0,.02,0,.03,0,.04-.01.08-.01.12,0,.01,0,.03,0,.04,0,0,0,.01,0,.02v40.3c0,.65.53,1.19,1.19,1.19h2.96v2.77c0,.65.53,1.19,1.19,1.19h11.06c.65,0,1.19-.53,1.19-1.19v-2.77h44.65v2.77c0,.65.53,1.19,1.19,1.19h11.06c.65,0,1.19-.53,1.19-1.19v-2.77h2.96c.65,0,1.19-.53,1.19-1.19v-40.3s0-.01,0-.02Zm-38.72-11.44h25.17l9.63,10.27h-34.8v-10.27Zm-27.54,0h25.17v10.27h-34.8l9.63-10.27Zm1.66,54.53h-8.69v-1.58h8.69v1.58Zm58.08,0h-8.69v-1.58h8.69v1.58Zm4.15-3.95h-75.07v-37.93h75.07v37.93Zm-70.99-28.84h13.83c.65,0,1.19-.53,1.19-1.19v-3.95c0-.65-.53-1.19-1.19-1.19h-13.83c-.65,0-1.19.53-1.19,1.19v3.95c0,.65.53,1.19,1.19,1.19Zm1.19-3.95h11.46v1.58h-11.46v-1.58Z"/>
      <path class="cls-1" d="m88.21,150.43h-4.75v-9.67c0-.75-.61-1.36-1.36-1.36s-1.36.61-1.36,1.36v9.67h-8.14v-9.67c0-.75-.61-1.36-1.36-1.36s-1.36.61-1.36,1.36v9.67h-4.75c-.75,0-1.36.61-1.36,1.36s.61,1.36,1.36,1.36h.84v10.77c0,5.2,4.16,9.44,9.33,9.57v21.51c0,5.67-4.62,10.29-10.29,10.29s-10.29-4.61-10.29-10.29v-5.98c0-4.04-3.28-7.32-7.32-7.32s-7.32,3.28-7.32,7.32v.86c0,4-3.26,7.26-7.26,7.26s-7.26-3.26-7.26-7.26v-2.93c13.32-5.71,20.91-13.59,22.53-23.44,3.5-21.28-21.91-43.77-22.99-44.72-.07-.06-.15-.09-.22-.13-.06-.03-.11-.08-.18-.1-.16-.06-.32-.1-.48-.1,0,0,0,0-.01,0,0,0,0,0-.01,0-.16,0-.33.04-.48.1-.07.03-.12.07-.18.1-.07.04-.15.07-.22.13-1.08.95-26.49,23.44-22.99,44.72,1.62,9.86,9.21,17.74,22.53,23.44v2.93c0,5.5,4.48,9.98,9.98,9.98s9.98-4.48,9.98-9.98v-.86c0-2.54,2.07-4.61,4.61-4.61s4.61,2.07,4.61,4.61v5.98c0,7.17,5.83,13,13,13s13-5.83,13-13v-21.51c5.17-.14,9.33-4.37,9.33-9.57v-10.77h.84c.75,0,1.36-.61,1.36-1.36s-.61-1.36-1.36-1.36Zm-62.64,22.94l14.53-14.53c.53-.53.53-1.39,0-1.92-.53-.53-1.39-.53-1.92,0l-12.61,12.61v-14.82l9.78-9.78c.53-.53.53-1.39,0-1.92-.53-.53-1.39-.53-1.92,0l-7.86,7.86v-27.91c6.13,6.03,22.52,23.89,19.85,40.11-1.42,8.62-8.11,15.65-19.85,20.92v-10.62Zm-2.71-22.5l-7.86-7.86c-.53-.53-1.39-.53-1.92,0-.53.53-.53,1.39,0,1.92l9.78,9.78v14.82l-12.61-12.61c-.53-.53-1.39-.53-1.92,0-.53.53-.53,1.39,0,1.92l14.53,14.53v10.62c-11.75-5.27-18.43-12.29-19.85-20.92-2.67-16.23,13.72-34.08,19.85-40.11v27.91Zm61.79,13.04c0,3.79-3.08,6.87-6.87,6.87h-2.21c-3.79,0-6.87-3.08-6.87-6.87v-10.77h15.95v10.77Zm-4.58-6.7h-6.79c-.75,0-1.36.61-1.36,1.36s.61,1.36,1.36,1.36h6.79c.75,0,1.36-.61,1.36-1.36s-.61-1.36-1.36-1.36Zm0,6.79h-6.79c-.75,0-1.36.61-1.36,1.36s.61,1.36,1.36,1.36h6.79c.75,0,1.36-.61,1.36-1.36s-.61-1.36-1.36-1.36Z"/>
      <path class="cls-1" d="m724.72,104.24c-5.42-6.36-12.29-5.45-14.8-4.84l-11.48-11.48,15.66-15.75,5.53.06h.02c.47,0,.92-.22,1.2-.59l6.18-8.08c.46-.6.4-1.45-.13-1.99l-2.14-2.14h0s-2.14-2.14-2.14-2.14c-.54-.54-1.39-.59-1.99-.13l-8.08,6.18c-.37.29-.59.73-.59,1.2v5.48l-15.67,15.76-11.55-11.55c.61-2.5,1.51-9.38-4.87-14.82-2.95-2.41-9.87-5.63-14.91-.58-.59.59-.59,1.55,0,2.14l7.07,7.12-1.12,1.12h0s-2.23,2.22-2.23,2.22l-7.12-7.07c-.59-.59-1.55-.59-2.14,0-5.05,5.05-1.82,11.96.61,14.94,5.42,6.35,12.29,5.45,14.8,4.84l11.51,11.51-3.75,3.85c-1.48-1.33-3.37-2.07-5.38-2.07-2.15,0-4.18.84-5.7,2.36l-11.1,11.1c-1.52,1.52-2.36,3.55-2.36,5.7s.84,4.18,2.36,5.7l1.44,1.44c1.52,1.52,3.55,2.36,5.7,2.36s4.18-.84,5.7-2.36l11.1-11.1c1.52-1.52,2.36-3.55,2.36-5.7,0-1.96-.7-3.81-1.98-5.27l3.75-3.86,11.51,11.51c-.61,2.5-1.51,9.38,4.87,14.82,1.81,1.47,5.1,3.25,8.54,3.25,2.18,0,4.42-.71,6.37-2.67.59-.59.59-1.55,0-2.14l-7.07-7.12,1.12-1.12h0s2.23-2.22,2.23-2.22l7.12,7.07c.3.29.68.44,1.07.44s.78-.15,1.07-.44c5.05-5.05,1.82-11.96-.61-14.94Zm-3.29-43.87l1.2,1.2,1.2,1.2-4.92,6.42-3.92-.04v-3.86l6.43-4.92Zm-50.31,61.21c-1.96,1.96-5.15,1.96-7.11,0l-1.44-1.44c-1.96-1.96-1.96-5.15,0-7.11l4.14-4.14,8.48,8.62-4.07,4.07Zm11.1-11.1l-4.89,4.89-8.48-8.62,4.82-4.82c.98-.98,2.27-1.47,3.56-1.47s2.58.49,3.56,1.47l1.44,1.44c1.96,1.96,1.96,5.15,0,7.11Zm41.91,5.36l-6.99-6.94c-.59-.59-1.55-.59-2.14,0l-2.18,2.18h0s-3.29,3.29-3.29,3.29c-.59.59-.59,1.55,0,2.14l6.95,6.99c-4.23,2.59-9.43-1.54-9.64-1.71-6.13-5.23-3.78-12.13-3.68-12.42.2-.55.06-1.17-.35-1.59l-26.43-26.43c-.41-.41-1.03-.55-1.58-.36-.29.1-7.2,2.45-12.4-3.65-.05-.06-4.32-5.39-1.73-9.66l6.99,6.94c.59.59,1.55.59,2.14,0l2.18-2.18h0s3.29-3.29,3.29-3.29c.59-.59.59-1.55,0-2.14l-6.95-6.99c4.23-2.59,9.43,1.54,9.64,1.71,6.13,5.23,3.78,12.13,3.68,12.42-.2.55-.06,1.17.35,1.59l26.43,26.43c.41.41,1.03.55,1.58.36.29-.1,7.19-2.45,12.4,3.65.05.06,4.32,5.39,1.73,9.66Z"/>
      <path class="cls-1" d="m389.52,0h-58.7c-1.74,0-3.16,1.42-3.16,3.16v73.67c0,1.74,1.42,3.16,3.16,3.16h58.7c1.74,0,3.16-1.42,3.16-3.16V3.16c0-1.74-1.42-3.16-3.16-3.16Zm.79,76.83c0,.44-.35.79-.79.79h-58.7c-.44,0-.79-.35-.79-.79V3.16c0-.44.35-.79.79-.79h58.7c.44,0,.79.35.79.79v73.67Zm-4.33-70.53h-51.62v20.26c-.06.14-.09.29-.09.44v3.94c0,.16.03.31.09.44v42.3h51.62V31.39c.06-.14.09-.29.09-.44v-3.94c0-.16-.03-.31-.09-.44V6.3Zm-49.25,2.37h46.88v17.14h-.59c.05-.21.07-.43.07-.66v-10.37c0-.21-.05-.41-.16-.59l-1.83-3.17c-.21-.37-.6-.59-1.03-.59h-5.12c-.42,0-.82.23-1.03.59l-1.83,3.17c-.1.18-.16.38-.16.59v10.37c0,.23.03.44.07.66h-.56c.05-.21.07-.43.07-.66v-10.37c0-.21-.05-.41-.16-.59l-1.83-3.17c-.21-.37-.6-.59-1.03-.59h-5.12c-.42,0-.82.23-1.03.59l-1.83,3.17c-.1.18-.16.38-.16.59v10.37c0,.23.03.44.07.66h-.56c.05-.21.07-.43.07-.66v-10.37c0-.21-.05-.41-.16-.59l-1.83-3.17c-.21-.37-.6-.59-1.03-.59h-5.12c-.42,0-.82.23-1.03.59l-1.83,3.17c-.1.18-.16.38-.16.59v10.37c0,.23.03.44.07.66h-.56c.05-.21.07-.43.07-.66v-10.37c0-.21-.05-.41-.16-.59l-1.83-3.17c-.21-.37-.6-.59-1.03-.59h-5.12c-.42,0-.82.23-1.03.59l-1.83,3.17c-.1.18-.16.38-.16.59v10.37c0,.23.03.44.07.66h-.59V8.67Zm44,7.8v8.69c0,.36-.29.64-.64.64h-5.12c-.36,0-.64-.29-.64-.64v-8.69h6.41Zm-5.82-2.37l.74-1.29h3.75l.74,1.29h-5.24Zm-5.74,2.37v8.69c0,.36-.29.64-.64.64h-5.12c-.36,0-.64-.29-.64-.64v-8.69h6.41Zm-5.82-2.37l.74-1.29h3.75l.74,1.29h-5.24Zm-5.74,2.37v8.69c0,.36-.29.64-.64.64h-5.12c-.36,0-.64-.29-.64-.64v-8.69h6.41Zm-5.82-2.37l.74-1.29h3.75l.74,1.29h-5.24Zm-5.74,2.37v8.69c0,.36-.29.64-.64.64h-5.12c-.36,0-.64-.29-.64-.64v-8.69h6.41Zm-5.82-2.37l.74-1.29h3.75l.74,1.29h-5.24Zm9.25,56.62c0,.33-.27.6-.6.6h-6.78c-.33,0-.6-.27-.6-.6v-15.85c0-1.06.43-2.1,1.19-2.84,1.21-1.19,1.9-2.84,1.9-4.53v-5.76h1.79v5.76c0,1.69.69,3.35,1.9,4.53.76.74,1.19,1.78,1.19,2.84v15.85Zm-6.02-32.14v-.51c0-.44.35-.79.79-.79h2.3c.44,0,.79.35.79.79v.51c0,.44-.35.79-.79.79h-2.3c-.44,0-.79-.35-.79-.79Zm20.73,32.14c0,.33-.27.6-.6.6h-6.78c-.33,0-.6-.27-.6-.6v-15.85c0-1.06.43-2.1,1.19-2.84,1.21-1.19,1.9-2.84,1.9-4.53v-5.76h1.79v5.76c0,1.69.69,3.35,1.9,4.53.76.74,1.19,1.78,1.19,2.84v15.85Zm-6.02-32.14v-.51c0-.44.35-.79.79-.79h2.3c.44,0,.79.35.79.79v.51c0,.44-.35.79-.79.79h-2.3c-.44,0-.79-.35-.79-.79Zm20.73,32.14c0,.33-.27.6-.6.6h-6.78c-.33,0-.6-.27-.6-.6v-15.85c0-1.06.43-2.1,1.19-2.84,1.21-1.19,1.9-2.84,1.9-4.53v-5.76h1.79v5.76c0,1.69.69,3.35,1.9,4.53.76.74,1.19,1.78,1.19,2.84v15.85Zm-6.02-32.14v-.51c0-.44.35-.79.79-.79h2.3c.44,0,.79.35.79.79v.51c0,.44-.35.79-.79.79h-2.3c-.44,0-.79-.35-.79-.79Zm10.76,32.74h-2.43c.04-.19.06-.39.06-.6v-15.85c0-1.69-.69-3.35-1.9-4.53-.76-.74-1.19-1.78-1.19-2.84v-6.66c.59-.57.96-1.37.96-2.26v-.51c0-1.74-1.42-3.16-3.16-3.16h-2.3c-1.74,0-3.16,1.42-3.16,3.16v.51c0,.97.44,1.84,1.13,2.42v6.5c0,1.06-.43,2.1-1.19,2.84-1.21,1.19-1.9,2.84-1.9,4.53v15.85c0,.21.02.41.06.6h-2.11c.04-.19.06-.39.06-.6v-15.85c0-1.69-.69-3.35-1.9-4.53-.76-.74-1.19-1.78-1.19-2.84v-6.66c.59-.57.96-1.37.96-2.26v-.51c0-1.74-1.42-3.16-3.16-3.16h-2.3c-1.74,0-3.16,1.42-3.16,3.16v.51c0,.97.44,1.84,1.13,2.42v6.5c0,1.06-.43,2.1-1.19,2.84-1.21,1.19-1.9,2.84-1.9,4.53v15.85c0,.21.02.41.06.6h-2.11c.04-.19.06-.39.06-.6v-15.85c0-1.69-.69-3.35-1.9-4.53-.76-.74-1.19-1.78-1.19-2.84v-6.66c.59-.57.96-1.37.96-2.26v-.51c0-1.74-1.42-3.16-3.16-3.16h-2.3c-1.74,0-3.16,1.42-3.16,3.16v.51c0,.97.44,1.84,1.13,2.42v6.5c0,1.06-.43,2.1-1.19,2.84-1.21,1.19-1.9,2.84-1.9,4.53v15.85c0,.21.02.41.06.6h-2.43v-39.19h46.88v39.19Zm.09-41.56h-47.05v-1.57h47.05v1.57Z"/>
    </g>
  </g>
</svg>