<?xml version="1.0" encoding="UTF-8"?>
<svg id="Layer_2" data-name="Layer 2" xmlns="http://www.w3.org/2000/svg" viewBox="0 0 514.05 89.77">
  <defs>
    <style>
      .cls-1 {
        fill: #fff;
        stroke-width: 0px;
      }
    </style>
  </defs>
  <g id="Icons">
    <g>
      <path class="cls-1" d="m110.35,37.75h-16.72v1.55h16.72v-1.55Zm-3.37-13.17h-9.98v1.55h9.98v-1.55Zm16.33,6.3h-1.92v-13.37c0-.43-.35-.78-.78-.78h-3.44v-1.05c0-.43-.35-.78-.78-.78h-28.81c-.43,0-.78.35-.78.78v40.86c0,.43.35.78.78.78h28.81c.43,0,.78-.35.78-.78v-1.05h3.44c.43,0,.78-.35.78-.78v-14.33h1.92c.43,0,.78-.35.78-.78v-7.96c0-.43-.35-.78-.78-.78Zm-7.69,23.84v1.05h-27.26v-12.38c.47.3,1.03.48,1.63.51v7.53c0,1.37,1.11,2.48,2.48,2.48h19.04c1.37,0,2.48-1.11,2.48-2.48v-7.53c.6-.02,1.15-.21,1.63-.51v11.34Zm-24.08-3.3v-7.52h20.9v7.52c0,.51-.42.93-.93.93h-19.04c-.51,0-.93-.42-.93-.93Zm24.08-10.84c0,.97-.79,1.77-1.77,1.77h-23.73c-.97,0-1.77-.79-1.77-1.77v-6.79h27.26v6.79Zm-23.14-10.7h19.03l2.78,2.35h-24.58l2.78-2.35Zm-.94-2.42v-7.58h20.9v7.58c0,.48-.39.87-.87.87h-19.16c-.48,0-.87-.39-.87-.87Zm24.08-9.95v13.83l-2.45-2.07c.5-.44.82-1.08.82-1.8v-8.35c0-.43-.35-.78-.78-.78h-22.45c-.43,0-.78.35-.78.78v8.35c0,.72.32,1.36.82,1.8l-2.45,2.07v-14.88h27.26v1.05Zm4.22,14.15v22.29h-2.66V18.28h2.66v13.37Zm2.7,7.18h-1.15v-6.41h1.15v6.41Z"/>
      <path class="cls-1" d="m202.38,3.97h-1.59s0,0-.01,0c0,0-.02,0-.02,0-.02,0-.03,0-.05,0,0,0-.02,0-.02,0-.02,0-.03,0-.05.01,0,0-.01,0-.02,0-.02,0-.05.01-.07.02h0s-6.77,2.89-6.77,2.89h-28.74v35.13h28.74l6.77,2.89h0s.02,0,.03,0c.02,0,.04.01.06.02.03,0,.06.01.09.02.02,0,.04,0,.06,0h1.59c2.01,0,3.65-1.64,3.65-3.65V7.62c0-2.01-1.64-3.65-3.65-3.65Zm-9.09,7.12v29.73h-27.04V8.12h27.04v2.97Zm1.22.47l3.54-.92v.84l-3.54.92v-.84Zm0,12.51h3.44v.81h-3.44v-.81Zm0,12.48l3.54.92v.84l-3.54-.92v-.84Zm5.67,6.9l-5.67-2.42v-2.38l4,1.04c.05.01.1.02.15.02.13,0,.26-.04.37-.13.15-.12.24-.29.24-.48v-2.09c0-.28-.19-.52-.45-.59l-4.31-1.12v-9.2h4.66v-3.24h-4.66v-9.2l4.31-1.12c.27-.07.45-.31.45-.59v-2.09c0-.19-.09-.37-.24-.48-.15-.12-.34-.15-.52-.11l-4,1.04v-2.38l5.67-2.42v37.95Zm4.63-2.12c0,1.34-1.09,2.43-2.43,2.43h-.99V5.19h.99c1.34,0,2.43,1.09,2.43,2.43v33.71Zm-32.75-24.58c-.93,0-1.69.76-1.69,1.69s.76,1.69,1.69,1.69,1.69-.76,1.69-1.69-.76-1.69-1.69-1.69Zm0,2.17c-.26,0-.48-.21-.48-.48s.21-.48.48-.48.48.21.48.48-.21.48-.48.48Zm7.71-2.17c-.93,0-1.69.76-1.69,1.69s.76,1.69,1.69,1.69,1.69-.76,1.69-1.69-.76-1.69-1.69-1.69Zm0,2.17c-.26,0-.48-.21-.48-.48s.21-.48.48-.48.48.21.48.48-.21.48-.48.48Zm7.71-2.17c-.93,0-1.69.76-1.69,1.69s.76,1.69,1.69,1.69,1.69-.76,1.69-1.69-.76-1.69-1.69-1.69Zm0,2.17c-.26,0-.48-.21-.48-.48s.21-.48.48-.48.48.21.48.48-.21.48-.48.48Zm-15.42,9.88c-.93,0-1.69.76-1.69,1.69s.76,1.69,1.69,1.69,1.69-.76,1.69-1.69-.76-1.69-1.69-1.69Zm0,2.17c-.26,0-.48-.21-.48-.48s.21-.48.48-.48.48.21.48.48-.21.48-.48.48Zm7.71-2.17c-.93,0-1.69.76-1.69,1.69s.76,1.69,1.69,1.69,1.69-.76,1.69-1.69-.76-1.69-1.69-1.69Zm0,2.17c-.26,0-.48-.21-.48-.48s.21-.48.48-.48.48.21.48.48-.21.48-.48.48Zm7.71-2.17c-.93,0-1.69.76-1.69,1.69s.76,1.69,1.69,1.69,1.69-.76,1.69-1.69-.76-1.69-1.69-1.69Zm0,2.17c-.26,0-.48-.21-.48-.48s.21-.48.48-.48.48.21.48.48-.21.48-.48.48Zm-16.27,8.54h17.11c2.01,0,3.65-1.64,3.65-3.65V13.09c0-2.01-1.64-3.65-3.65-3.65h-17.11c-2.01,0-3.65,1.64-3.65,3.65v22.77c0,2.01,1.64,3.65,3.65,3.65Zm-2.43-26.42c0-1.34,1.09-2.43,2.43-2.43h17.11c1.34,0,2.43,1.09,2.43,2.43v3.25c-.69-1.08-1.9-1.79-3.28-1.79-1.95,0-3.57,1.44-3.85,3.32-.28-1.87-1.9-3.32-3.85-3.32s-3.57,1.44-3.85,3.32c-.28-1.87-1.9-3.32-3.85-3.32-1.37,0-2.58.72-3.28,1.79v-3.25Zm21.38,5.35c0,1.48-1.2,2.68-2.68,2.68s-2.68-1.2-2.68-2.68c0-.07,0-.14,0-.21.11-1.38,1.26-2.48,2.67-2.48,1.3,0,2.38.92,2.63,2.14.04.17.05.35.05.54Zm-7.71,0c0,1.48-1.2,2.68-2.68,2.68s-2.68-1.2-2.68-2.68c0-.07,0-.14,0-.21.11-1.38,1.26-2.48,2.67-2.48s2.57,1.09,2.67,2.48c0,.07,0,.14,0,.21Zm-7.71,0c0,1.48-1.2,2.68-2.68,2.68s-2.68-1.2-2.68-2.68c0-.18.02-.36.05-.54.25-1.22,1.33-2.14,2.63-2.14,1.41,0,2.57,1.09,2.67,2.48,0,.07,0,.14,0,.21Zm-5.96,2.11c.69,1.08,1.9,1.79,3.28,1.79,1.81,0,3.34-1.24,3.77-2.92h.16c.44,1.68,1.96,2.92,3.77,2.92s3.34-1.24,3.77-2.92h.16c.44,1.68,1.96,2.92,3.77,2.92,1.37,0,2.58-.72,3.28-1.79v.68c-.79.93-1.96,1.53-3.28,1.53s-2.56-.6-3.38-1.65c-.12-.15-.29-.23-.48-.23s-.36.09-.48.23c-.82,1.05-2.05,1.65-3.38,1.65s-2.56-.6-3.38-1.65c-.12-.15-.29-.23-.48-.23s-.36.09-.48.23c-.82,1.05-2.05,1.65-3.38,1.65s-2.49-.59-3.28-1.53v-.68Zm0,2.33c.92.68,2.05,1.09,3.28,1.09,1.46,0,2.83-.57,3.85-1.58,1.02,1.01,2.4,1.58,3.85,1.58s2.83-.57,3.85-1.58c1.02,1.01,2.4,1.58,3.85,1.58,1.23,0,2.36-.4,3.28-1.09v5.51c-.69-1.08-1.9-1.79-3.28-1.79-1.95,0-3.57,1.44-3.85,3.32-.28-1.87-1.9-3.32-3.85-3.32s-3.57,1.44-3.85,3.32c-.28-1.87-1.9-3.32-3.85-3.32-1.37,0-2.58.72-3.28,1.79v-5.51Zm21.38,7.61c0,1.48-1.2,2.68-2.68,2.68s-2.68-1.2-2.68-2.68c0-.07,0-.14,0-.21.11-1.38,1.26-2.48,2.67-2.48,1.3,0,2.38.92,2.63,2.14.04.17.05.35.05.54Zm-7.71,0c0,1.48-1.2,2.68-2.68,2.68s-2.68-1.2-2.68-2.68c0-.07,0-.14,0-.21.11-1.38,1.26-2.48,2.67-2.48s2.57,1.09,2.67,2.48c0,.07,0,.14,0,.21Zm-7.71,0c0,1.48-1.2,2.68-2.68,2.68s-2.68-1.2-2.68-2.68c0-.18.02-.36.05-.54.25-1.22,1.33-2.14,2.63-2.14,1.41,0,2.57,1.09,2.67,2.48,0,.07,0,.14,0,.21Zm-5.96,2.11c.69,1.08,1.9,1.79,3.28,1.79,1.81,0,3.34-1.24,3.77-2.92h.16c.44,1.68,1.96,2.92,3.77,2.92s3.34-1.24,3.77-2.92h.16c.44,1.68,1.96,2.92,3.77,2.92,1.37,0,2.58-.72,3.28-1.79v.68c-.79.93-1.96,1.53-3.28,1.53s-2.56-.6-3.38-1.65c-.12-.15-.29-.23-.48-.23s-.36.09-.48.23c-.82,1.05-2.05,1.65-3.38,1.65s-2.56-.6-3.38-1.65c-.12-.15-.29-.23-.48-.23s-.36.09-.48.23c-.82,1.05-2.05,1.65-3.38,1.65s-2.49-.59-3.28-1.53v-.68Zm0,2.33c.92.68,2.05,1.09,3.28,1.09,1.46,0,2.83-.57,3.85-1.58,1.02,1.01,2.4,1.58,3.85,1.58s2.83-.57,3.85-1.58c1.02,1.01,2.4,1.58,3.85,1.58,1.23,0,2.36-.4,3.28-1.09v.93c0,1.34-1.09,2.43-2.43,2.43h-17.11c-1.34,0-2.43-1.09-2.43-2.43v-.93Z"/>
      <path class="cls-1" d="m433.96,51.79l.76-1.35-2.84-1.6,3.51-.91-.39-1.5-5.06,1.32-3.5-1.97,3.5-1.97,5.06,1.32.39-1.5-3.51-.91,2.96-1.67-.76-1.35-2.94,1.66,1.03-3.39-1.49-.45-1.51,4.95-3.48,1.96v-3.87l3.63-3.76-1.12-1.08-2.52,2.61v-3.4h-1.55v3.38l-2.44-2.56-1.12,1.07,3.57,3.74v3.94l-3.6-2.03-1.51-4.95-1.49.45,1.03,3.39-2.94-1.66-.76,1.35,2.96,1.67-3.51.91.39,1.5,5.06-1.32,3.5,1.97-3.5,1.97-5.06-1.32-.39,1.5,3.51.91-2.84,1.6.76,1.35,2.82-1.59-1.03,3.39,1.49.45,1.51-4.95,3.6-2.03v4.26l-3.63,3.76,1.12,1.08,2.52-2.61v3.26h1.55v-3.24l2.44,2.57,1.12-1.07-3.57-3.75v-4.19l3.48,1.96,1.51,4.95,1.49-.45-1.03-3.39,2.82,1.59Zm-24.01,6.5l-1.19,1c.71.85,1.5,1.65,2.34,2.38l1.02-1.17c-.78-.68-1.51-1.42-2.17-2.21Zm29.68-25.05l1.18-1.01c-.72-.84-1.52-1.63-2.37-2.35l-1,1.19c.79.66,1.52,1.4,2.19,2.17Zm4.02,25.63l-1.55-1.08c3.49-5.04,4.61-11.26,3.07-17.2-.64-2.46-1.69-4.74-3.13-6.79l-1.27.89c1.33,1.9,2.31,4.01,2.9,6.29,1.49,5.74.3,11.76-3.27,16.53-.13.17-.18.38-.15.59s.15.39.32.51l1.19.83-7.34,4.19,1.44-8.29,1.33.93c.34.24.81.16,1.06-.17,3.18-4.16,4.25-9.43,2.94-14.47-1.13-4.36-3.89-8.01-7.77-10.29-3.57-2.1-7.69-2.8-11.72-2.02l.42-2.67c3.11-.45,6.29-.14,9.23.91,1.16.41,2.3.94,3.37,1.57.39.23.78.48,1.15.73l.88-1.28c-.4-.28-.82-.54-1.24-.79-1.16-.68-2.38-1.25-3.64-1.7-3.37-1.2-7.02-1.5-10.56-.88-.33.06-.58.32-.63.65l-.68,4.36c-.04.26.05.52.25.7.19.18.46.24.72.18l.08-.02c3.96-1.03,8.07-.45,11.6,1.62,3.52,2.07,6.03,5.39,7.06,9.34,1.13,4.33.31,8.86-2.23,12.54l-1.71-1.19c-.22-.15-.5-.18-.74-.08-.24.1-.42.32-.47.58l-1.93,11.12c-.05.3.07.6.32.77.13.09.29.14.45.14.13,0,.26-.03.38-.1l9.84-5.61c.23-.13.38-.37.39-.64.01-.27-.11-.52-.33-.67Zm-15.29,1.88c-2.88.68-5.85.52-8.59-.45-.92-.33-1.81-.74-2.65-1.24-3.52-2.07-6.03-5.39-7.06-9.34-1.03-3.96-.45-8.07,1.62-11.6.03-.04.05-.09.08-.13l1.45.98c.22.15.5.17.74.07.24-.11.42-.33.46-.59l1.72-10.83c.05-.29-.08-.59-.32-.76-.24-.17-.56-.19-.82-.04l-9.71,5.45c-.24.13-.38.38-.4.65-.01.27.12.53.34.68l1.84,1.24c-.09.14-.18.29-.26.43-2.84,4.83-3.62,10.47-2.22,15.89.61,2.34,1.6,4.53,2.95,6.51l1.28-.87c-1.25-1.83-2.17-3.86-2.73-6.03-1.3-5.02-.57-10.25,2.05-14.72.19-.33.4-.65.63-1,.24-.36.14-.84-.21-1.08l-1.42-.96,7.22-4.05-1.27,8.05-1.1-.74c-.36-.24-.84-.15-1.08.21-.19.28-.38.57-.56.86-2.28,3.88-2.91,8.42-1.78,12.77,1.13,4.36,3.89,8.01,7.77,10.29.93.55,1.91,1.01,2.92,1.36,2.66.95,5.52,1.19,8.32.73l-.47,2.65c-3.11.36-6.29-.04-9.23-1.17-.72-.28-1.43-.6-2.12-.97h0c-.65-.35-1.29-.73-1.9-1.15l-.88,1.28c.66.45,1.35.87,2.05,1.24l.36-.69-.36.69c.74.39,1.51.74,2.29,1.04,2.41.93,4.98,1.41,7.55,1.41,1.01,0,2.01-.07,3.01-.22.33-.05.59-.3.65-.63l.76-4.33c.04-.26-.04-.52-.23-.7-.19-.18-.46-.25-.71-.19Z"/>
      <path class="cls-1" d="m330.23,16.85l-2.28,2.43c-.23.24-.22.63.03.86.12.11.27.16.42.16.16,0,.32-.06.44-.19l2.28-2.43c.23-.24.22-.63-.03-.86-.24-.23-.63-.22-.86.03Zm28.95,2.43l-2.28-2.43c-.23-.24-.61-.26-.86-.03-.24.23-.26.61-.03.86l2.28,2.43c.12.13.28.19.44.19.15,0,.3-.05.42-.16.24-.23.26-.61.03-.86Zm4.84,2.43s0-.01,0-.02c0-.02,0-.04,0-.06,0,0,0-.01,0-.02,0-.03-.01-.05-.02-.08,0,0,0,0,0,0,0-.02-.02-.05-.03-.07,0,0,0,0,0-.01-.01-.02-.03-.05-.04-.07,0,0,0,0,0,0-.01-.02-.03-.04-.05-.06,0,0,0,0,0,0l-6.08-6.48c-.11-.12-.28-.19-.44-.19h-27.54c-.17,0-.33.07-.44.19l-6.08,6.48s0,0,0,0c-.02.02-.03.04-.05.06,0,0,0,0,0,0-.02.02-.03.04-.04.07,0,0,0,0,0,.01-.01.02-.02.04-.03.07,0,0,0,0,0,0,0,.03-.01.05-.02.08,0,0,0,.01,0,.02,0,.02,0,.04,0,.06,0,0,0,.01,0,.02,0,0,0,0,0,.01v20.66c0,.34.27.61.61.61h1.52v1.42c0,.34.27.61.61.61h5.67c.34,0,.61-.27.61-.61v-1.42h22.89v1.42c0,.34.27.61.61.61h5.67c.34,0,.61-.27.61-.61v-1.42h1.52c.34,0,.61-.27.61-.61v-20.66s0,0,0-.01Zm-19.85-5.86h12.9l4.94,5.27h-17.84v-5.27Zm-14.12,0h12.9v5.27h-17.84l4.94-5.27Zm.85,27.95h-4.46v-.81h4.46v.81Zm29.77,0h-4.46v-.81h4.46v.81Zm2.13-2.03h-38.48v-19.44h38.48v19.44Zm-36.39-14.78h7.09c.34,0,.61-.27.61-.61v-2.03c0-.34-.27-.61-.61-.61h-7.09c-.34,0-.61.27-.61.61v2.03c0,.34.27.61.61.61Zm.61-2.03h5.87v.81h-5.87v-.81Z"/>
      <path class="cls-1" d="m45.21,47.82h-2.43v-4.95c0-.38-.31-.7-.7-.7s-.69.31-.69.7v4.95h-4.17v-4.95c0-.38-.31-.7-.7-.7s-.7.31-.7.7v4.95h-2.43c-.38,0-.7.31-.7.7s.31.69.7.69h.43v5.52c0,2.66,2.13,4.84,4.78,4.91v11.02c0,2.91-2.37,5.27-5.27,5.27s-5.27-2.36-5.27-5.27v-3.06c0-2.07-1.68-3.75-3.75-3.75s-3.75,1.68-3.75,3.75v.44c0,2.05-1.67,3.72-3.72,3.72s-3.72-1.67-3.72-3.72v-1.5c6.83-2.93,10.72-6.96,11.55-12.02,1.79-10.91-11.23-22.43-11.78-22.92-.03-.03-.07-.04-.11-.07-.03-.02-.06-.04-.09-.05-.08-.03-.16-.05-.25-.05,0,0,0,0,0,0,0,0,0,0,0,0-.08,0-.17.02-.25.05-.03.01-.06.04-.09.05-.04.02-.08.04-.11.07-.55.49-13.58,12.01-11.79,22.92.83,5.05,4.72,9.09,11.55,12.02v1.5c0,2.82,2.29,5.11,5.11,5.11s5.11-2.29,5.11-5.11v-.44c0-1.3,1.06-2.36,2.36-2.36s2.36,1.06,2.36,2.36v3.06c0,3.68,2.99,6.66,6.66,6.66s6.66-2.99,6.66-6.66v-11.02c2.65-.07,4.78-2.24,4.78-4.91v-5.52h.43c.38,0,.7-.31.7-.69s-.31-.7-.7-.7Zm-32.1,11.76l7.45-7.45c.27-.27.27-.71,0-.98-.27-.27-.71-.27-.98,0l-6.46,6.46v-7.6l5.01-5.01c.27-.27.27-.71,0-.98-.27-.27-.71-.27-.98,0l-4.03,4.03v-14.31c3.14,3.09,11.54,12.24,10.17,20.56-.73,4.42-4.15,8.02-10.17,10.72v-5.44Zm-1.39-11.53l-4.03-4.03c-.27-.27-.71-.27-.98,0-.27.27-.27.71,0,.98l5.01,5.01v7.6l-6.46-6.46c-.27-.27-.71-.27-.98,0-.27.27-.27.71,0,.98l7.45,7.45v5.44c-6.02-2.7-9.45-6.3-10.17-10.72-1.37-8.32,7.03-17.47,10.17-20.56v14.31Zm31.67,6.69c0,1.94-1.58,3.52-3.52,3.52h-1.13c-1.94,0-3.52-1.58-3.52-3.52v-5.52h8.17v5.52Zm-2.35-3.43h-3.48c-.38,0-.7.31-.7.7s.31.7.7.7h3.48c.38,0,.7-.31.7-.7s-.31-.7-.7-.7Zm0,3.48h-3.48c-.38,0-.7.31-.7.69s.31.7.7.7h3.48c.38,0,.7-.31.7-.7s-.31-.69-.7-.69Z"/>
      <path class="cls-1" d="m512.37,77.91c-2.78-3.26-6.3-2.79-7.58-2.48l-5.88-5.88,8.03-8.07,2.84.03h0c.24,0,.47-.11.62-.3l3.17-4.14c.24-.31.21-.75-.07-1.02l-1.1-1.1h0s-1.1-1.1-1.1-1.1c-.28-.28-.71-.3-1.02-.07l-4.14,3.17c-.19.15-.3.37-.3.62v2.81l-8.03,8.08-5.92-5.92c.31-1.28.77-4.81-2.49-7.6-1.51-1.23-5.06-2.89-7.64-.3-.3.3-.3.79,0,1.1l3.62,3.65-.57.57h0s-1.14,1.14-1.14,1.14l-3.65-3.62c-.3-.3-.79-.3-1.1,0-2.59,2.59-.94,6.13.31,7.66,2.78,3.26,6.3,2.79,7.58,2.48l5.9,5.9-1.92,1.97c-.76-.68-1.73-1.06-2.76-1.06-1.1,0-2.14.43-2.92,1.21l-5.69,5.69c-.78.78-1.21,1.82-1.21,2.92s.43,2.14,1.21,2.92l.74.74c.78.78,1.82,1.21,2.92,1.21s2.14-.43,2.92-1.21l5.69-5.69c.78-.78,1.21-1.82,1.21-2.92,0-1-.36-1.95-1.01-2.7l1.92-1.98,5.9,5.9c-.31,1.28-.77,4.81,2.49,7.6.93.76,2.61,1.67,4.38,1.67,1.12,0,2.26-.37,3.27-1.37.3-.3.3-.79,0-1.1l-3.62-3.65.57-.57h0s1.14-1.14,1.14-1.14l3.65,3.62c.15.15.35.23.55.23s.4-.08.55-.23c2.59-2.59.94-6.13-.31-7.66Zm-1.69-22.49l.62.61.61.62-2.52,3.29-2.01-.02v-1.98l3.3-2.52Zm-25.79,31.38c-1,1-2.64,1.01-3.64,0l-.74-.74c-1-1-1-2.64,0-3.64l2.12-2.12,4.35,4.42-2.09,2.09Zm5.69-5.69l-2.51,2.51-4.35-4.42,2.47-2.47c.5-.5,1.16-.75,1.82-.75s1.32.25,1.82.75l.74.74c1,1,1,2.64,0,3.64Zm21.48,2.75l-3.58-3.56c-.3-.3-.79-.3-1.1,0l-1.12,1.12h0s-1.69,1.69-1.69,1.69c-.3.3-.3.79,0,1.1l3.56,3.59c-2.17,1.33-4.83-.79-4.94-.88-3.14-2.68-1.94-6.22-1.89-6.37.1-.28.03-.6-.18-.81l-13.55-13.55c-.21-.21-.53-.28-.81-.18-.15.05-3.69,1.25-6.36-1.87-.02-.03-2.22-2.76-.89-4.95l3.58,3.56c.3.3.79.3,1.1,0l1.12-1.12h0s1.69-1.69,1.69-1.69c.3-.3.3-.79,0-1.1l-3.56-3.59c2.17-1.33,4.83.79,4.94.88,3.14,2.68,1.94,6.22,1.89,6.37-.1.28-.03.6.18.81l13.55,13.55c.21.21.53.28.81.18.15-.05,3.69-1.25,6.36,1.87.02.03,2.22,2.76.89,4.95Z"/>
      <path class="cls-1" d="m278.82,0h-30.09c-.89,0-1.62.73-1.62,1.62v37.76c0,.89.73,1.62,1.62,1.62h30.09c.89,0,1.62-.73,1.62-1.62V1.62c0-.89-.73-1.62-1.62-1.62Zm.41,39.38c0,.22-.18.41-.41.41h-30.09c-.22,0-.41-.18-.41-.41V1.62c0-.22.18-.41.41-.41h30.09c.22,0,.41.18.41.41v37.76Zm-2.22-36.15h-26.46v10.38c-.03.07-.04.15-.04.23v2.02c0,.08.02.16.04.23v21.68h26.46v-21.68c.03-.07.04-.15.04-.23v-2.02c0-.08-.02-.16-.04-.23V3.23Zm-25.24,1.22h24.03v8.79h-.3c.02-.11.04-.22.04-.34v-5.31c0-.11-.03-.21-.08-.3l-.94-1.63c-.11-.19-.31-.3-.53-.3h-2.63c-.22,0-.42.12-.53.3l-.94,1.63c-.05.09-.08.2-.08.3v5.31c0,.12.01.23.04.34h-.29c.02-.11.04-.22.04-.34v-5.31c0-.11-.03-.21-.08-.3l-.94-1.63c-.11-.19-.31-.3-.53-.3h-2.63c-.22,0-.42.12-.53.3l-.94,1.63c-.05.09-.08.2-.08.3v5.31c0,.12.01.23.04.34h-.29c.02-.11.04-.22.04-.34v-5.31c0-.11-.03-.21-.08-.3l-.94-1.63c-.11-.19-.31-.3-.53-.3h-2.63c-.22,0-.42.12-.53.3l-.94,1.63c-.05.09-.08.2-.08.3v5.31c0,.12.01.23.04.34h-.29c.02-.11.04-.22.04-.34v-5.31c0-.11-.03-.21-.08-.3l-.94-1.63c-.11-.19-.31-.3-.53-.3h-2.63c-.22,0-.42.12-.53.3l-.94,1.63c-.05.09-.08.2-.08.3v5.31c0,.12.01.23.04.34h-.3V4.45Zm22.55,4v4.46c0,.18-.15.33-.33.33h-2.63c-.18,0-.33-.15-.33-.33v-4.46h3.29Zm-2.99-1.22l.38-.66h1.92l.38.66h-2.69Zm-2.94,1.22v4.46c0,.18-.15.33-.33.33h-2.63c-.18,0-.33-.15-.33-.33v-4.46h3.29Zm-2.99-1.22l.38-.66h1.92l.38.66h-2.69Zm-2.94,1.22v4.46c0,.18-.15.33-.33.33h-2.63c-.18,0-.33-.15-.33-.33v-4.46h3.29Zm-2.99-1.22l.38-.66h1.92l.38.66h-2.69Zm-2.94,1.22v4.46c0,.18-.15.33-.33.33h-2.63c-.18,0-.33-.15-.33-.33v-4.46h3.29Zm-2.99-1.22l.38-.66h1.92l.38.66h-2.69Zm4.74,29.02c0,.17-.14.31-.31.31h-3.48c-.17,0-.31-.14-.31-.31v-8.12c0-.54.22-1.07.61-1.46.62-.61.98-1.45.98-2.32v-2.95h.92v2.95c0,.87.36,1.72.98,2.32.39.38.61.91.61,1.46v8.12Zm-3.09-16.48v-.26c0-.22.18-.41.41-.41h1.18c.22,0,.41.18.41.41v.26c0,.22-.18.41-.41.41h-1.18c-.22,0-.41-.18-.41-.41Zm10.63,16.48c0,.17-.14.31-.31.31h-3.48c-.17,0-.31-.14-.31-.31v-8.12c0-.54.22-1.07.61-1.46.62-.61.98-1.45.98-2.32v-2.95h.92v2.95c0,.87.36,1.72.98,2.32.39.38.61.91.61,1.46v8.12Zm-3.09-16.48v-.26c0-.22.18-.41.41-.41h1.18c.22,0,.41.18.41.41v.26c0,.22-.18.41-.41.41h-1.18c-.22,0-.41-.18-.41-.41Zm10.63,16.48c0,.17-.14.31-.31.31h-3.48c-.17,0-.31-.14-.31-.31v-8.12c0-.54.22-1.07.61-1.46.62-.61.98-1.45.98-2.32v-2.95h.92v2.95c0,.87.36,1.72.98,2.32.39.38.61.91.61,1.46v8.12Zm-3.09-16.48v-.26c0-.22.18-.41.41-.41h1.18c.22,0,.41.18.41.41v.26c0,.22-.18.41-.41.41h-1.18c-.22,0-.41-.18-.41-.41Zm5.51,16.78h-1.24c.02-.1.03-.2.03-.31v-8.12c0-.87-.36-1.72-.98-2.32-.39-.38-.61-.91-.61-1.46v-3.41c.3-.29.49-.7.49-1.16v-.26c0-.89-.73-1.62-1.62-1.62h-1.18c-.89,0-1.62.73-1.62,1.62v.26c0,.5.23.94.58,1.24v3.33c0,.54-.22,1.07-.61,1.46-.62.61-.98,1.45-.98,2.32v8.12c0,.11.01.21.03.31h-1.08c.02-.1.03-.2.03-.31v-8.12c0-.87-.36-1.72-.98-2.32-.39-.38-.61-.91-.61-1.46v-3.41c.3-.29.49-.7.49-1.16v-.26c0-.89-.73-1.62-1.62-1.62h-1.18c-.89,0-1.62.73-1.62,1.62v.26c0,.5.23.94.58,1.24v3.33c0,.54-.22,1.07-.61,1.46-.62.61-.98,1.45-.98,2.32v8.12c0,.11.01.21.03.31h-1.08c.02-.1.03-.2.03-.31v-8.12c0-.87-.36-1.72-.98-2.32-.39-.38-.61-.91-.61-1.46v-3.41c.3-.29.49-.7.49-1.16v-.26c0-.89-.73-1.62-1.62-1.62h-1.18c-.89,0-1.62.73-1.62,1.62v.26c0,.5.23.94.58,1.24v3.33c0,.54-.22,1.07-.61,1.46-.62.61-.98,1.45-.98,2.32v8.12c0,.11.01.21.03.31h-1.24v-20.09h24.03v20.09Zm.04-21.3h-24.12v-.8h24.12v.8Z"/>
    </g>
  </g>
</svg>