<?xml version="1.0" encoding="UTF-8"?>
<svg id="Layer_2" data-name="Layer 2" xmlns="http://www.w3.org/2000/svg" viewBox="0 0 224 112">
  <defs>
    <style>
      .cls-1 {
        fill: #fff;
        stroke-width: 0px;
      }
    </style>
  </defs>
  <g id="Icons">
    <g>
      <g>
        <path class="cls-1" d="m91.08,28.59h-19.44v1.81h19.44v-1.81Zm-3.92-15.32h-11.61v1.81h11.61v-1.81Zm18.99,7.33h-2.24V5.05c0-.5-.4-.9-.9-.9h-4v-1.22c0-.5-.4-.9-.9-.9h-33.5c-.5,0-.9.4-.9.9v47.51c0,.5.4.9.9.9h33.5c.5,0,.9-.4.9-.9v-1.22h4c.5,0,.9-.4.9-.9v-16.66h2.24c.5,0,.9-.4.9-.9v-9.26c0-.5-.4-.9-.9-.9Zm-8.94,27.72v1.22h-31.69v-14.4c.55.35,1.2.56,1.89.59v8.75c0,1.59,1.29,2.89,2.89,2.89h22.14c1.59,0,2.89-1.29,2.89-2.89v-8.75c.69-.03,1.34-.24,1.89-.59v13.18Zm-28-3.84v-8.74h24.3v8.74c0,.6-.48,1.08-1.08,1.08h-22.14c-.6,0-1.08-.48-1.08-1.08Zm28-12.6c0,1.13-.92,2.05-2.05,2.05h-27.59c-1.13,0-2.05-.92-2.05-2.05v-7.9h31.69v7.9Zm-26.91-12.44h22.12l3.23,2.74h-28.58l3.23-2.74Zm-1.09-2.82V7.81h24.3v8.81c0,.56-.46,1.01-1.01,1.01h-22.27c-.56,0-1.01-.45-1.01-1.01Zm28-11.57v16.08l-2.85-2.41c.58-.52.95-1.26.95-2.1V6.91c0-.5-.4-.9-.9-.9h-26.11c-.5,0-.9.4-.9.9v9.71c0,.84.37,1.58.95,2.1l-2.85,2.41V3.83h31.69v1.22Zm4.9,16.45v25.92h-3.1V5.95h3.1v15.55Zm3.14,8.35h-1.33v-7.45h1.33v7.45Z"/>
        <path class="cls-1" d="m104.97,64.33h-1.85s0,0-.01,0c0,0-.02,0-.03,0-.02,0-.04,0-.05,0,0,0-.02,0-.03,0-.02,0-.04,0-.06.01,0,0-.01,0-.02,0-.03,0-.05.02-.08.03h0s-7.87,3.36-7.87,3.36h-33.41v40.84h33.41l7.87,3.36h0s.02,0,.03.01c.02,0,.05.02.07.02.03,0,.07.02.11.02.02,0,.05,0,.07,0h1.85c2.34,0,4.24-1.9,4.24-4.24v-39.2c0-2.34-1.9-4.24-4.24-4.24Zm-10.57,8.28v34.57h-31.44v-38.02h31.44v3.45Zm1.41.55l4.12-1.07v.97l-4.12,1.07v-.97Zm0,14.54h4v.94h-4v-.94Zm0,14.51l4.12,1.07v.97l-4.12-1.07v-.97Zm6.59,8.02l-6.59-2.81v-2.77l4.65,1.21c.06.02.12.02.18.02.15,0,.31-.05.43-.15.17-.13.27-.34.27-.56v-2.43c0-.32-.22-.6-.53-.68l-5.01-1.31v-10.7h5.42v-3.77h-5.42v-10.7l5.01-1.31c.31-.08.53-.36.53-.68v-2.43c0-.22-.1-.43-.27-.56-.17-.13-.4-.18-.61-.12l-4.65,1.21v-2.77l6.59-2.81v44.12Zm5.39-2.46c0,1.56-1.27,2.83-2.83,2.83h-1.15v-44.85h1.15c1.56,0,2.83,1.27,2.83,2.83v39.2Zm-38.08-28.58c-1.09,0-1.97.88-1.97,1.97s.88,1.97,1.97,1.97,1.97-.88,1.97-1.97-.88-1.97-1.97-1.97Zm0,2.53c-.31,0-.56-.25-.56-.56s.25-.56.56-.56.56.25.56.56-.25.56-.56.56Zm8.96-2.53c-1.09,0-1.97.88-1.97,1.97s.88,1.97,1.97,1.97,1.97-.88,1.97-1.97-.88-1.97-1.97-1.97Zm0,2.53c-.31,0-.56-.25-.56-.56s.25-.56.56-.56.56.25.56.56-.25.56-.56.56Zm8.96-2.53c-1.09,0-1.97.88-1.97,1.97s.88,1.97,1.97,1.97,1.97-.88,1.97-1.97-.88-1.97-1.97-1.97Zm0,2.53c-.31,0-.56-.25-.56-.56s.25-.56.56-.56.56.25.56.56-.25.56-.56.56Zm-17.93,11.49c-1.09,0-1.97.88-1.97,1.97s.88,1.97,1.97,1.97,1.97-.88,1.97-1.97-.88-1.97-1.97-1.97Zm0,2.53c-.31,0-.56-.25-.56-.56s.25-.56.56-.56.56.25.56.56-.25.56-.56.56Zm8.96-2.53c-1.09,0-1.97.88-1.97,1.97s.88,1.97,1.97,1.97,1.97-.88,1.97-1.97-.88-1.97-1.97-1.97Zm0,2.53c-.31,0-.56-.25-.56-.56s.25-.56.56-.56.56.25.56.56-.25.56-.56.56Zm8.96-2.53c-1.09,0-1.97.88-1.97,1.97s.88,1.97,1.97,1.97,1.97-.88,1.97-1.97-.88-1.97-1.97-1.97Zm0,2.53c-.31,0-.56-.25-.56-.56s.25-.56.56-.56.56.25.56.56-.25.56-.56.56Zm-18.91,9.93h19.9c2.34,0,4.24-1.9,4.24-4.24v-26.48c0-2.34-1.9-4.24-4.24-4.24h-19.9c-2.34,0-4.24,1.9-4.24,4.24v26.48c0,2.34,1.9,4.24,4.24,4.24Zm-2.83-30.72c0-1.56,1.27-2.83,2.83-2.83h19.9c1.56,0,2.83,1.27,2.83,2.83v3.77c-.81-1.25-2.21-2.08-3.81-2.08-2.27,0-4.15,1.68-4.48,3.85-.33-2.18-2.21-3.85-4.48-3.85s-4.15,1.68-4.48,3.85c-.33-2.18-2.21-3.85-4.48-3.85-1.6,0-3,.83-3.81,2.08v-3.77Zm24.86,6.22c0,1.72-1.4,3.12-3.12,3.12s-3.12-1.4-3.12-3.12c0-.08,0-.16.01-.24.12-1.61,1.47-2.88,3.11-2.88,1.51,0,2.77,1.07,3.06,2.49.04.2.06.41.06.63Zm-8.96,0c0,1.72-1.4,3.12-3.12,3.12s-3.12-1.4-3.12-3.12c0-.08,0-.16.01-.24.12-1.61,1.47-2.88,3.11-2.88s2.99,1.27,3.11,2.88c0,.08.01.16.01.24Zm-8.96,0c0,1.72-1.4,3.12-3.12,3.12s-3.12-1.4-3.12-3.12c0-.21.02-.42.06-.63.29-1.42,1.55-2.49,3.06-2.49,1.64,0,2.99,1.27,3.11,2.88,0,.08.01.16.01.24Zm-6.93,2.45c.81,1.25,2.21,2.08,3.81,2.08,2.11,0,3.88-1.44,4.39-3.39h.19c.51,1.95,2.28,3.39,4.39,3.39s3.88-1.44,4.39-3.39h.19c.51,1.95,2.28,3.39,4.39,3.39,1.6,0,3-.83,3.81-2.08v.79c-.92,1.08-2.28,1.77-3.81,1.77s-2.97-.7-3.93-1.91c-.13-.17-.34-.27-.56-.27s-.42.1-.56.27c-.95,1.22-2.39,1.91-3.93,1.91s-2.97-.7-3.93-1.91c-.13-.17-.34-.27-.56-.27s-.42.1-.56.27c-.95,1.22-2.39,1.91-3.93,1.91s-2.9-.69-3.81-1.77v-.79Zm0,2.71c1.07.79,2.38,1.26,3.81,1.26,1.7,0,3.29-.66,4.48-1.83,1.19,1.17,2.79,1.83,4.48,1.83s3.29-.66,4.48-1.83c1.19,1.17,2.79,1.83,4.48,1.83,1.43,0,2.75-.47,3.81-1.26v6.4c-.81-1.25-2.21-2.08-3.81-2.08-2.27,0-4.15,1.68-4.48,3.85-.33-2.18-2.21-3.85-4.48-3.85s-4.15,1.68-4.48,3.85c-.33-2.18-2.21-3.85-4.48-3.85-1.6,0-3,.83-3.81,2.08v-6.4Zm24.86,8.85c0,1.72-1.4,3.12-3.12,3.12s-3.12-1.4-3.12-3.12c0-.08,0-.16.01-.24.12-1.61,1.47-2.88,3.11-2.88,1.51,0,2.77,1.07,3.06,2.49.04.2.06.41.06.63Zm-8.96,0c0,1.72-1.4,3.12-3.12,3.12s-3.12-1.4-3.12-3.12c0-.08,0-.16.01-.24.12-1.61,1.47-2.88,3.11-2.88s2.99,1.27,3.11,2.88c0,.08.01.16.01.24Zm-8.96,0c0,1.72-1.4,3.12-3.12,3.12s-3.12-1.4-3.12-3.12c0-.21.02-.42.06-.63.29-1.42,1.55-2.49,3.06-2.49,1.64,0,2.99,1.27,3.11,2.88,0,.08.01.16.01.24Zm-6.93,2.45c.81,1.25,2.21,2.08,3.81,2.08,2.11,0,3.88-1.44,4.39-3.39h.19c.51,1.95,2.28,3.39,4.39,3.39s3.88-1.44,4.39-3.39h.19c.51,1.95,2.28,3.39,4.39,3.39,1.6,0,3-.83,3.81-2.08v.79c-.92,1.08-2.28,1.77-3.81,1.77s-2.97-.7-3.93-1.91c-.13-.17-.34-.27-.56-.27s-.42.1-.56.27c-.95,1.22-2.39,1.91-3.93,1.91s-2.97-.7-3.93-1.91c-.13-.17-.34-.27-.56-.27s-.42.1-.56.27c-.95,1.22-2.39,1.91-3.93,1.91s-2.9-.69-3.81-1.77v-.79Zm0,2.71c1.07.79,2.38,1.26,3.81,1.26,1.7,0,3.29-.66,4.48-1.83,1.19,1.17,2.79,1.83,4.48,1.83s3.29-.66,4.48-1.83c1.19,1.17,2.79,1.83,4.48,1.83,1.43,0,2.75-.47,3.81-1.26v1.08c0,1.56-1.27,2.83-2.83,2.83h-19.9c-1.56,0-2.83-1.27-2.83-2.83v-1.08Z"/>
      </g>
      <g>
        <path class="cls-1" d="m154.66,33.59l.89-1.57-3.3-1.86,4.08-1.06-.45-1.75-5.89,1.53-4.07-2.3,4.07-2.29,5.89,1.53.45-1.75-4.08-1.06,3.44-1.94-.89-1.57-3.42,1.93,1.2-3.94-1.73-.53-1.75,5.75-4.05,2.28v-4.5l4.23-4.38-1.3-1.25-2.93,3.03v-3.95h-1.81v3.93l-2.84-2.98-1.31,1.25,4.15,4.35v4.58l-4.19-2.36-1.75-5.75-1.73.53,1.2,3.94-3.42-1.93-.89,1.57,3.44,1.94-4.08,1.06.45,1.75,5.89-1.53,4.07,2.29-4.07,2.3-5.89-1.53-.45,1.75,4.08,1.06-3.3,1.86.89,1.57,3.28-1.85-1.2,3.94,1.73.53,1.75-5.75,4.19-2.36v4.95l-4.22,4.38,1.3,1.25,2.93-3.03v3.79h1.81v-3.77l2.84,2.98,1.31-1.25-4.15-4.35v-4.87l4.05,2.28,1.75,5.75,1.73-.53-1.2-3.94,3.28,1.85Zm-27.92,7.55l-1.38,1.16c.83.99,1.74,1.92,2.72,2.77l1.18-1.36c-.91-.79-1.75-1.65-2.52-2.57Zm34.51-29.13l1.37-1.17c-.84-.98-1.76-1.9-2.75-2.73l-1.17,1.38c.91.77,1.77,1.62,2.55,2.53Zm4.67,29.8l-1.81-1.26c4.06-5.86,5.36-13.09,3.56-20-.74-2.85-1.97-5.51-3.64-7.89l-1.48,1.04c1.55,2.21,2.68,4.66,3.37,7.31,1.73,6.67.35,13.68-3.81,19.22-.15.2-.21.44-.17.69s.17.46.38.6l1.39.96-8.54,4.87,1.67-9.64,1.55,1.08c.4.28.94.19,1.23-.19,3.69-4.84,4.94-10.97,3.42-16.82-1.32-5.07-4.53-9.32-9.04-11.97-4.15-2.44-8.94-3.26-13.62-2.35l.48-3.1c3.61-.53,7.31-.16,10.73,1.05,1.35.48,2.67,1.1,3.92,1.83.45.27.9.55,1.34.85l1.02-1.49c-.47-.32-.95-.63-1.44-.92-1.35-.79-2.77-1.45-4.23-1.97-3.92-1.39-8.16-1.75-12.28-1.03-.38.07-.68.37-.74.75l-.79,5.07c-.05.3.06.6.29.81.23.2.54.28.83.2l.09-.03c4.6-1.19,9.39-.53,13.48,1.88,4.1,2.41,7.01,6.27,8.21,10.86,1.31,5.04.36,10.3-2.6,14.58l-1.98-1.38c-.25-.18-.58-.21-.86-.09-.28.12-.49.37-.54.68l-2.24,12.93c-.06.34.08.69.37.89.15.11.34.16.52.16.15,0,.31-.04.45-.12l11.45-6.52c.27-.15.44-.43.45-.74.01-.31-.13-.6-.39-.78Zm-17.78,2.18c-3.35.79-6.8.6-9.99-.53-1.06-.38-2.1-.86-3.09-1.44-4.1-2.41-7.01-6.27-8.21-10.86-1.19-4.6-.53-9.39,1.88-13.48.03-.05.06-.1.09-.15l1.69,1.14c.26.17.58.2.86.08.28-.12.48-.38.53-.69l1.99-12.6c.05-.34-.09-.68-.38-.88-.28-.2-.66-.22-.96-.05l-11.29,6.33c-.27.15-.45.44-.46.75-.01.31.14.61.4.79l2.14,1.44c-.1.17-.2.33-.3.5-3.3,5.61-4.21,12.18-2.58,18.48.71,2.72,1.86,5.27,3.43,7.57l1.49-1.02c-1.45-2.13-2.52-4.49-3.18-7.01-1.52-5.84-.67-11.91,2.39-17.11.22-.38.46-.76.73-1.16.28-.41.17-.97-.24-1.25l-1.66-1.12,8.39-4.7-1.48,9.36-1.27-.86c-.41-.28-.97-.17-1.25.24-.22.33-.44.66-.65,1-2.65,4.51-3.39,9.79-2.07,14.85,1.32,5.07,4.53,9.32,9.04,11.97,1.08.64,2.22,1.17,3.4,1.59,3.09,1.1,6.41,1.39,9.68.85l-.54,3.08c-3.62.42-7.31-.05-10.73-1.37-.84-.32-1.67-.7-2.46-1.12h0c-.76-.4-1.5-.85-2.21-1.34l-1.02,1.49c.76.52,1.57,1.01,2.38,1.44l.42-.8-.42.8c.86.45,1.75.86,2.66,1.21,2.81,1.09,5.79,1.64,8.78,1.64,1.17,0,2.34-.08,3.5-.25.39-.06.69-.35.76-.74l.88-5.03c.05-.3-.05-.6-.27-.81-.22-.21-.53-.29-.83-.22Z"/>
        <path class="cls-1" d="m128.57,73.08l-2.65,2.83c-.27.28-.25.73.03,1,.14.13.31.19.48.19.19,0,.38-.07.52-.22l2.65-2.83c.27-.28.25-.73-.03-1-.28-.27-.73-.25-1,.03Zm33.67,2.83l-2.65-2.83c-.27-.28-.71-.3-1-.03-.28.27-.3.71-.03,1l2.65,2.83c.14.15.33.22.52.22.17,0,.35-.06.48-.19.28-.27.3-.71.03-1Zm5.63,2.83s0-.01,0-.02c0-.02,0-.05,0-.07,0,0,0-.01,0-.02,0-.03-.01-.06-.02-.09,0,0,0,0,0,0,0-.03-.02-.05-.03-.08,0,0,0-.01,0-.02-.01-.03-.03-.05-.05-.08,0,0,0,0,0,0-.02-.02-.03-.04-.05-.07,0,0,0,0,0,0l-7.06-7.54c-.13-.14-.32-.22-.52-.22h-32.03c-.2,0-.38.08-.52.22l-7.06,7.54s0,0,0,0c-.02.02-.04.04-.05.07,0,0,0,0,0,0-.02.03-.03.05-.05.08,0,0,0,.01,0,.02-.01.03-.02.05-.03.08,0,0,0,0,0,0,0,.03-.02.06-.02.09,0,0,0,.01,0,.02,0,.02,0,.05,0,.07,0,0,0,.01,0,.02,0,0,0,0,0,.01v24.02c0,.39.32.71.71.71h1.77v1.65c0,.39.32.71.71.71h6.59c.39,0,.71-.32.71-.71v-1.65h26.61v1.65c0,.39.32.71.71.71h6.59c.39,0,.71-.32.71-.71v-1.65h1.77c.39,0,.71-.32.71-.71v-24.02s0,0,0-.01Zm-23.08-6.82h15l5.74,6.12h-20.74v-6.12Zm-16.41,0h15v6.12h-20.74l5.74-6.12Zm.99,32.5h-5.18v-.94h5.18v.94Zm34.62,0h-5.18v-.94h5.18v.94Zm2.47-2.35h-44.74v-22.61h44.74v22.61Zm-42.31-17.19h8.24c.39,0,.71-.32.71-.71v-2.35c0-.39-.32-.71-.71-.71h-8.24c-.39,0-.71.32-.71.71v2.35c0,.39.32.71.71.71Zm.71-2.35h6.83v.94h-6.83v-.94Z"/>
      </g>
      <path class="cls-1" d="m52.57,19.06h-2.83v-5.76c0-.45-.36-.81-.81-.81s-.81.36-.81.81v5.76h-4.85v-5.76c0-.45-.36-.81-.81-.81s-.81.36-.81.81v5.76h-2.83c-.45,0-.81.36-.81.81s.36.81.81.81h.5v6.42c0,3.1,2.48,5.62,5.56,5.7v12.82c0,3.38-2.75,6.13-6.13,6.13s-6.13-2.75-6.13-6.13v-3.56c0-2.41-1.96-4.36-4.36-4.36s-4.36,1.96-4.36,4.36v.51c0,2.39-1.94,4.33-4.33,4.33s-4.33-1.94-4.33-4.33v-1.74c7.94-3.4,12.46-8.1,13.43-13.97C30.75,14.17,15.61.76,14.97.2c-.04-.03-.09-.05-.13-.08-.04-.02-.07-.05-.11-.06-.09-.04-.19-.06-.29-.06,0,0,0,0,0,0,0,0,0,0,0,0-.1,0-.2.02-.29.06-.04.02-.07.04-.11.06-.04.03-.09.04-.13.08C13.26.76-1.89,14.17.2,26.85c.97,5.87,5.49,10.57,13.43,13.97v1.74c0,3.28,2.67,5.95,5.95,5.95s5.95-2.67,5.95-5.95v-.51c0-1.51,1.23-2.75,2.75-2.75s2.74,1.23,2.74,2.75v3.56c0,4.27,3.48,7.75,7.75,7.75s7.75-3.48,7.75-7.75v-12.82c3.08-.08,5.56-2.61,5.56-5.7v-6.42h.5c.45,0,.81-.36.81-.81s-.36-.81-.81-.81Zm-37.33,13.67l8.66-8.66c.32-.32.32-.83,0-1.14-.32-.32-.83-.32-1.14,0l-7.52,7.52v-8.83l5.83-5.83c.32-.32.32-.83,0-1.14-.32-.31-.83-.31-1.14,0l-4.69,4.69V2.68c3.65,3.59,13.42,14.24,11.83,23.91-.85,5.14-4.83,9.33-11.83,12.47v-6.33Zm-1.62-13.41l-4.69-4.69c-.32-.31-.83-.31-1.14,0-.32.32-.32.83,0,1.14l5.83,5.83v8.83l-7.52-7.52c-.32-.32-.83-.32-1.14,0-.32.32-.32.83,0,1.14l8.66,8.66v6.33c-7-3.14-10.98-7.33-11.83-12.47C.2,16.92,9.97,6.28,13.62,2.68v16.64Zm36.83,7.77c0,2.26-1.84,4.09-4.09,4.09h-1.32c-2.26,0-4.09-1.84-4.09-4.09v-6.42h9.5v6.42Zm-2.73-3.99h-4.04c-.45,0-.81.36-.81.81s.36.81.81.81h4.04c.45,0,.81-.36.81-.81s-.36-.81-.81-.81Zm0,4.04h-4.04c-.45,0-.81.36-.81.81s.36.81.81.81h4.04c.45,0,.81-.36.81-.81s-.36-.81-.81-.81Z"/>
      <g>
        <path class="cls-1" d="m222.05,34.12c-3.23-3.79-7.33-3.25-8.82-2.89l-6.84-6.84,9.33-9.39,3.3.04h0c.28,0,.55-.13.72-.35l3.69-4.82c.28-.36.24-.87-.08-1.19l-1.27-1.27h0s-1.27-1.27-1.27-1.27c-.32-.32-.83-.35-1.19-.08l-4.82,3.69c-.22.17-.35.44-.35.72v3.26l-9.34,9.39-6.88-6.88c.36-1.49.9-5.59-2.9-8.83-1.76-1.44-5.88-3.36-8.89-.35-.35.35-.35.92,0,1.27l4.21,4.24-.67.67h0s-1.33,1.33-1.33,1.33l-4.24-4.21c-.35-.35-.92-.35-1.27,0-3.01,3.01-1.09,7.13.36,8.9,3.23,3.79,7.33,3.25,8.82,2.88l6.86,6.86-2.23,2.3c-.88-.8-2.01-1.24-3.21-1.24-1.28,0-2.49.5-3.4,1.41l-6.62,6.62c-.91.91-1.41,2.11-1.41,3.4s.5,2.49,1.41,3.4l.86.86c.91.91,2.11,1.41,3.4,1.41s2.49-.5,3.4-1.41l6.62-6.62c.91-.91,1.41-2.11,1.41-3.4,0-1.17-.42-2.27-1.18-3.14l2.24-2.3,6.86,6.86c-.36,1.49-.9,5.59,2.9,8.83,1.08.88,3.04,1.94,5.09,1.94,1.3,0,2.63-.43,3.8-1.59.35-.35.35-.92,0-1.27l-4.21-4.24.67-.67h0s1.33-1.33,1.33-1.33l4.24,4.21c.18.17.41.26.64.26s.46-.09.64-.26c3.01-3.01,1.09-7.13-.36-8.9Zm-1.96-26.15l.72.71.71.72-2.93,3.83-2.33-.03v-2.3l3.83-2.93Zm-29.99,36.48c-1.17,1.17-3.07,1.17-4.24,0l-.86-.86c-1.17-1.17-1.17-3.07,0-4.24l2.47-2.47,5.05,5.14-2.42,2.42Zm6.62-6.62l-2.92,2.92-5.05-5.14,2.87-2.87c.58-.58,1.35-.88,2.12-.88s1.53.29,2.12.88l.86.86c1.17,1.17,1.17,3.07,0,4.24Zm24.98,3.2l-4.17-4.14c-.35-.35-.92-.35-1.27,0l-1.3,1.3h0s-1.96,1.96-1.96,1.96c-.35.35-.35.92,0,1.27l4.14,4.17c-2.52,1.54-5.62-.92-5.75-1.02-3.65-3.12-2.25-7.23-2.19-7.4.12-.33.04-.7-.21-.95l-15.75-15.75c-.25-.25-.61-.33-.94-.21-.17.06-4.29,1.46-7.39-2.18-.03-.03-2.58-3.21-1.03-5.76l4.17,4.14c.35.35.92.35,1.27,0l1.3-1.3h0s1.96-1.96,1.96-1.96c.35-.35.35-.92,0-1.27l-4.14-4.17c2.52-1.54,5.62.92,5.75,1.02,3.65,3.12,2.25,7.23,2.19,7.4-.12.33-.04.7.21.95l15.75,15.75c.25.25.61.33.94.21.17-.06,4.29-1.46,7.39,2.18.03.03,2.58,3.21,1.03,5.76Z"/>
        <path class="cls-1" d="m220.27,64.33h-34.98c-1.04,0-1.88.85-1.88,1.88v43.91c0,1.04.85,1.88,1.88,1.88h34.98c1.04,0,1.88-.85,1.88-1.88v-43.91c0-1.04-.85-1.88-1.88-1.88Zm.47,45.79c0,.26-.21.47-.47.47h-34.98c-.26,0-.47-.21-.47-.47v-43.91c0-.26.21-.47.47-.47h34.98c.26,0,.47.21.47.47v43.91Zm-2.58-42.03h-30.77v12.07c-.03.08-.05.17-.05.26v2.35c0,.09.02.18.05.26v25.21h30.77v-25.21c.03-.08.05-.17.05-.26v-2.35c0-.09-.02-.18-.05-.26v-12.07Zm-29.35,1.41h27.94v10.22h-.35c.03-.13.04-.26.04-.39v-6.18c0-.12-.03-.25-.09-.35l-1.09-1.89c-.13-.22-.36-.35-.61-.35h-3.05c-.25,0-.49.13-.61.35l-1.09,1.89c-.06.11-.09.23-.09.35v6.18c0,.13.02.26.04.39h-.34c.03-.13.04-.26.04-.39v-6.18c0-.12-.03-.25-.09-.35l-1.09-1.89c-.13-.22-.36-.35-.61-.35h-3.05c-.25,0-.49.13-.61.35l-1.09,1.89c-.06.11-.09.23-.09.35v6.18c0,.13.02.26.04.39h-.34c.03-.13.04-.26.04-.39v-6.18c0-.12-.03-.25-.09-.35l-1.09-1.89c-.13-.22-.36-.35-.61-.35h-3.05c-.25,0-.49.13-.61.35l-1.09,1.89c-.06.11-.09.23-.09.35v6.18c0,.13.02.26.04.39h-.34c.03-.13.04-.26.04-.39v-6.18c0-.12-.03-.25-.09-.35l-1.09-1.89c-.13-.22-.36-.35-.61-.35h-3.05c-.25,0-.49.13-.61.35l-1.09,1.89c-.06.11-.09.23-.09.35v6.18c0,.13.02.26.04.39h-.35v-10.22Zm26.22,4.65v5.18c0,.21-.17.38-.38.38h-3.05c-.21,0-.38-.17-.38-.38v-5.18h3.82Zm-3.47-1.41l.44-.77h2.24l.44.77h-3.12Zm-3.42,1.41v5.18c0,.21-.17.38-.38.38h-3.05c-.21,0-.38-.17-.38-.38v-5.18h3.82Zm-3.47-1.41l.44-.77h2.24l.44.77h-3.12Zm-3.42,1.41v5.18c0,.21-.17.38-.38.38h-3.05c-.21,0-.38-.17-.38-.38v-5.18h3.82Zm-3.47-1.41l.44-.77h2.24l.44.77h-3.12Zm-3.42,1.41v5.18c0,.21-.17.38-.38.38h-3.05c-.21,0-.38-.17-.38-.38v-5.18h3.82Zm-3.47-1.41l.44-.77h2.24l.44.77h-3.12Zm5.51,33.74c0,.2-.16.36-.36.36h-4.04c-.2,0-.36-.16-.36-.36v-9.45c0-.63.26-1.25.71-1.69.72-.71,1.14-1.69,1.14-2.7v-3.43h1.07v3.43c0,1.01.41,1.99,1.14,2.7.45.44.71,1.06.71,1.69v9.45Zm-3.59-19.16v-.3c0-.26.21-.47.47-.47h1.37c.26,0,.47.21.47.47v.3c0,.26-.21.47-.47.47h-1.37c-.26,0-.47-.21-.47-.47Zm12.36,19.16c0,.2-.16.36-.36.36h-4.04c-.2,0-.36-.16-.36-.36v-9.45c0-.63.26-1.25.71-1.69.72-.71,1.14-1.69,1.14-2.7v-3.43h1.07v3.43c0,1.01.41,1.99,1.14,2.7.45.44.71,1.06.71,1.69v9.45Zm-3.59-19.16v-.3c0-.26.21-.47.47-.47h1.37c.26,0,.47.21.47.47v.3c0,.26-.21.47-.47.47h-1.37c-.26,0-.47-.21-.47-.47Zm12.36,19.16c0,.2-.16.36-.36.36h-4.04c-.2,0-.36-.16-.36-.36v-9.45c0-.63.26-1.25.71-1.69.72-.71,1.14-1.69,1.14-2.7v-3.43h1.07v3.43c0,1.01.41,1.99,1.14,2.7.45.44.71,1.06.71,1.69v9.45Zm-3.59-19.16v-.3c0-.26.21-.47.47-.47h1.37c.26,0,.47.21.47.47v.3c0,.26-.21.47-.47.47h-1.37c-.26,0-.47-.21-.47-.47Zm6.41,19.52h-1.45c.02-.12.04-.24.04-.36v-9.45c0-1.01-.41-1.99-1.14-2.7-.45-.44-.71-1.06-.71-1.69v-3.97c.35-.34.57-.82.57-1.35v-.3c0-1.04-.85-1.88-1.88-1.88h-1.37c-1.04,0-1.88.85-1.88,1.88v.3c0,.58.26,1.1.68,1.44v3.87c0,.63-.26,1.25-.71,1.69-.72.71-1.14,1.69-1.14,2.7v9.45c0,.12.01.24.04.36h-1.26c.02-.12.04-.24.04-.36v-9.45c0-1.01-.41-1.99-1.14-2.7-.45-.44-.71-1.06-.71-1.69v-3.97c.35-.34.57-.82.57-1.35v-.3c0-1.04-.85-1.88-1.88-1.88h-1.37c-1.04,0-1.88.85-1.88,1.88v.3c0,.58.26,1.1.68,1.44v3.87c0,.63-.26,1.25-.71,1.69-.72.71-1.14,1.69-1.14,2.7v9.45c0,.12.01.24.04.36h-1.26c.02-.12.04-.24.04-.36v-9.45c0-1.01-.41-1.99-1.14-2.7-.45-.44-.71-1.06-.71-1.69v-3.97c.35-.34.57-.82.57-1.35v-.3c0-1.04-.85-1.88-1.88-1.88h-1.37c-1.04,0-1.88.85-1.88,1.88v.3c0,.58.26,1.1.68,1.44v3.87c0,.63-.26,1.25-.71,1.69-.72.71-1.14,1.69-1.14,2.7v9.45c0,.12.01.24.04.36h-1.45v-23.35h27.94v23.35Zm.05-24.77h-28.04v-.94h28.04v.94Z"/>
      </g>
    </g>
  </g>
</svg>